<svg width="24" height="23" viewBox="0 0 24 23" fill="none" xmlns="http://www.w3.org/2000/svg">
<path d="M16.5915 7.15676C16.596 7.15676 16.602 7.15676 16.608 7.15676C16.7648 7.15676 16.9103 7.20551 17.0295 7.28951L17.0273 7.28801C17.1143 7.36376 17.1728 7.47026 17.187 7.59026V7.59251C17.202 7.68401 17.2103 7.78901 17.2103 7.89626C17.2103 7.94501 17.2088 7.99301 17.205 8.04101V8.03426C17.0363 9.81101 16.3043 14.1198 15.9323 16.1088C15.7748 16.951 15.465 17.233 15.165 17.26C14.5133 17.3208 14.0183 16.8295 13.3868 16.4155C12.3983 15.7668 11.8395 15.3633 10.8803 14.731C9.77101 14.0013 10.4903 13.5985 11.1218 12.943C11.2875 12.7705 14.1608 10.1568 14.217 9.91976C14.22 9.90551 14.2215 9.88976 14.2215 9.87326C14.2215 9.81476 14.1998 9.76151 14.1645 9.72101C14.1255 9.69551 14.0768 9.68126 14.0258 9.68126C13.992 9.68126 13.9598 9.68801 13.9298 9.69926L13.9313 9.69851C13.8323 9.72101 12.2533 10.7645 9.19426 12.829C8.86051 13.0923 8.43901 13.2588 7.98001 13.2783H7.97551C7.32526 13.1995 6.73501 13.0548 6.17476 12.8485L6.23026 12.8665C5.52676 12.637 4.96801 12.5163 5.01601 12.1278C5.04151 11.9258 5.32001 11.719 5.85151 11.5075C9.12551 10.081 11.3088 9.14076 12.4013 8.68676C13.6065 8.04701 15.0038 7.52051 16.473 7.17926L16.5908 7.15601L16.5915 7.15676ZM11.9475 0.395508C5.72101 0.410508 0.678757 5.46176 0.678757 11.6905C0.678757 17.9283 5.73526 22.9855 11.9738 22.9855C18.2123 22.9855 23.2688 17.929 23.2688 11.6905C23.2688 5.46176 18.2265 0.410508 12.0015 0.395508H12C11.9825 0.395508 11.965 0.395508 11.9475 0.395508Z" fill="white"/>
</svg>
